# xmcd
# 
# Track frame offsets:
#     150
#     10691
#     23367
#     34305
#     46818
#     57017
#     68049
#     79694
#     91182
#     101934
#     115266
#     126353
#     137587
#     149341
#     161844
#     172569
#     183526
#     194429
#     204132
#     215454
#     226597
#     239491
#     249260
#     261075
#     272124
#     281247
#     290722
# 
# Disc length: 4012
# 
# Revision: 1
# Processed by: cddbd v1.5.2PL0 Copyright (c) Steve Scherf et al.
# Submitted via: fre:ac v1.0.31
# 
DISCID=7b0faa1b
DTITLE=Various Artist - Where Southern Soul Began 2.1 1955-1962
DYEAR=1961
DGENRE=Rhythm and Blues
TTITLE0=Al "TNT" Briggs - Cigarettes and Coffee
TTITLE1=Joe Tex - I Let Her Get Away
TTITLE2=Ted Taylor - Since You're Home
TTITLE3=Rodge Martin - They Say
TTITLE4=Roscoe Shelton - Yesterday's Mistake
TTITLE5=Sam and Dave - I Need Love
TTITLE6=Tabby Thomas - My Baby's Got It
TTITLE7=The 5 Royales - She Did Me Wrong
TTITLE8=Arthur Alexander - The Girl That Radiates That Charm
TTITLE9=Arthur K. Adams - I'll Be Your Friend
TTITLE10=Bobby "Blue" Bland - Don't Cry No More
TTITLE11=Buddy Ace - Screaming Please
TTITLE12=The Chellows - Be My Baby
TTITLE13=George Hughley - It Hurt Me Too
TTITLE14=Lavelle White - Stop These Teardrops
TTITLE15=Steve Dickinson - Before I Leave You
TTITLE16=Bobby Hebb - Atlanta, GA
TTITLE17=Maxine Davis - Another Man
TTITLE18=William Bell - Any Other Way
TTITLE19=The Tams - Untie Me
TTITLE20=Prince Conley - I'm Going Home
TTITLE21=Herbert Hunter - Dr. Feel-Good
TTITLE22=Barbara Lynn - You're Gonna Need Me
TTITLE23=Yvonne Fair - I Found You
TTITLE24=Calvin and Clarence - I Don't Know School Girl
TTITLE25=Sam Baker - So Long
TTITLE26=Little Jimmy Griffin - If Things Don't Change
EXTD=
EXTT0=
EXTT1=
EXTT2=
EXTT3=
EXTT4=
EXTT5=
EXTT6=
EXTT7=
EXTT8=
EXTT9=
EXTT10=
EXTT11=
EXTT12=
EXTT13=
EXTT14=
EXTT15=
EXTT16=
EXTT17=
EXTT18=
EXTT19=
EXTT20=
EXTT21=
EXTT22=
EXTT23=
EXTT24=
EXTT25=
EXTT26=
PLAYORDER=
